<?xml version="1.0" standalone="no"?>
<!DOCTYPE svg PUBLIC "-//W3C//DTD SVG 20010904//EN"
 "http://www.w3.org/TR/2001/REC-SVG-20010904/DTD/svg10.dtd">
<svg version="1.0" xmlns="http://www.w3.org/2000/svg"
 width="391.000000pt" height="394.000000pt" viewBox="0 0 391.000000 394.000000"
 preserveAspectRatio="xMidYMid meet">

<g transform="translate(0.000000,394.000000) scale(0.100000,-0.100000)"
fill="#000000" stroke="none">
<path d="M0 1970 l0 -1970 1955 0 1955 0 0 1970 0 1970 -1955 0 -1955 0 0
-1970z m1628 1567 c24 -25 20 -37 -10 -37 -10 0 -18 -7 -18 -15 0 -12 14 -15
64 -15 35 0 85 -3 111 -7 43 -5 46 -7 30 -20 -30 -21 -4 -36 67 -41 81 -4 102
-12 68 -23 -20 -7 -17 -8 15 -5 41 4 65 -10 65 -37 0 -8 9 -17 19 -20 11 -3
22 -17 26 -36 4 -17 11 -31 16 -31 5 0 9 -7 9 -15 0 -8 8 -19 18 -24 24 -13
22 -42 -6 -71 -19 -20 -22 -21 -22 -6 0 11 -4 14 -12 9 -7 -4 -42 -8 -77 -9
-41 0 -66 -5 -69 -12 -2 -7 -10 -12 -17 -12 -13 0 -39 -59 -30 -68 9 -9 115
-11 120 -1 4 5 12 9 18 9 7 0 6 -4 -3 -11 -11 -7 6 -9 58 -7 39 2 72 -1 72 -6
0 -4 6 -6 14 -3 7 3 33 1 57 -5 110 -25 187 -28 173 -7 -3 5 -1 9 4 9 16 0 22
-13 12 -25 -16 -19 68 -39 111 -27 36 10 59 -2 51 -26 -2 -6 4 -12 13 -12 10
0 58 -21 109 -46 127 -64 134 -68 161 -94 22 -21 29 -20 27 1 -1 3 6 6 14 6 7
0 12 -3 9 -5 -9 -9 27 -42 38 -35 6 3 7 1 3 -6 -4 -6 6 -29 24 -51 69 -88 70
-95 70 -553 0 -227 -4 -428 -10 -447 -18 -70 -24 -86 -56 -141 -62 -106 -126
-158 -264 -219 -41 -18 -104 -46 -140 -62 -259 -119 -506 -229 -565 -253 -129
-51 -233 -33 -307 54 -51 60 -72 128 -65 217 3 41 2 74 -1 74 -4 0 -54 -18
-112 -41 -58 -22 -112 -41 -120 -41 -8 0 -30 -11 -47 -25 -21 -15 -31 -18 -27
-9 3 8 14 18 25 21 11 4 17 11 14 16 -4 5 0 9 7 9 10 0 10 2 -1 9 -17 11 -17
11 159 89 199 88 176 94 182 -51 5 -140 24 -195 79 -236 66 -49 106 -41 342
65 126 57 127 58 127 91 0 31 -2 33 -25 27 l-25 -6 0 115 0 116 56 25 c31 14
59 26 62 26 3 0 2 -40 -1 -88 -4 -49 -4 -118 0 -154 l6 -65 28 11 c29 10 29
10 29 101 l0 90 39 16 39 17 -5 -90 -5 -90 28 15 28 15 -2 109 c-3 116 -1 123
46 137 22 7 22 7 22 -103 0 -61 2 -111 5 -111 2 0 51 20 108 45 124 55 181
106 227 207 30 67 30 68 30 253 0 206 3 197 -69 171 -32 -11 -34 -14 -35 -66
l-1 -54 -50 -19 c-57 -21 -75 -39 -75 -79 0 -21 5 -28 19 -28 11 0 26 6 33 13
12 12 85 57 93 57 10 0 15 -142 6 -177 -10 -38 -16 -42 -87 -73 -66 -29 -105
-62 -91 -77 3 -2 34 7 69 21 36 14 68 26 71 26 4 0 7 -13 7 -28 0 -26 -7 -32
-96 -70 -52 -23 -99 -42 -102 -42 -14 0 -12 113 3 184 9 44 15 126 15 219 l0
147 -37 -23 c-36 -23 -38 -27 -43 -87 l-5 -62 -55 -22 -55 -22 -3 -85 c-3 -81
-4 -85 -32 -101 -15 -9 -31 -14 -34 -10 -3 3 -6 36 -6 74 l0 69 -30 -16 c-25
-13 -30 -22 -30 -50 0 -32 -4 -37 -59 -64 -32 -17 -61 -27 -65 -24 -9 9 -7
146 2 158 7 10 48 35 57 35 3 0 5 -20 5 -45 0 -46 7 -53 41 -35 17 10 19 23
19 156 l0 146 30 11 c26 10 30 16 30 49 0 32 5 40 30 53 30 15 30 16 30 105 0
71 -3 90 -14 90 -35 0 -46 -29 -46 -120 0 -71 -3 -89 -16 -94 -33 -13 -44 -6
-44 24 l0 31 -30 -16 c-26 -14 -31 -14 -36 -1 -13 33 1 60 34 70 l32 9 0 147
0 147 -95 -35 -95 -36 0 -73 c0 -82 1 -83 73 -46 49 25 61 12 53 -59 -3 -34
-12 -65 -19 -70 -23 -15 -37 -8 -37 17 0 27 -18 32 -51 15 -13 -8 -19 -21 -19
-45 0 -37 9 -42 41 -25 18 10 19 7 20 -62 1 -40 0 -85 -1 -100 -2 -31 -1 -32
34 -18 22 8 26 16 26 49 0 28 5 40 18 44 9 2 25 8 35 12 14 6 17 1 17 -33 0
-35 -4 -41 -30 -52 -29 -12 -30 -15 -30 -76 0 -60 -2 -64 -30 -79 -16 -8 -31
-15 -35 -15 -3 0 -5 29 -5 64 l0 64 -46 7 c-51 7 -58 3 -68 -39 -5 -21 -4 -27
6 -23 51 21 48 23 48 -46 0 -36 2 -72 5 -79 6 -15 -50 -44 -185 -97 -41 -16
-118 -49 -170 -74 -53 -24 -161 -70 -240 -100 -80 -31 -194 -77 -255 -102 -60
-26 -118 -49 -127 -52 -10 -3 -16 -9 -13 -13 3 -5 1 -11 -4 -15 -6 -3 -8 4 -5
17 3 13 6 33 5 45 0 13 3 22 7 21 4 -1 21 5 37 14 17 8 73 34 125 56 562 240
579 249 639 321 23 27 54 75 69 108 23 50 27 70 27 153 0 83 -3 101 -25 139
-38 67 -70 86 -143 86 -49 0 -73 -6 -115 -30 -126 -69 -213 -229 -200 -366 l5
-49 -56 -17 c-31 -9 -81 -28 -111 -44 -52 -26 -102 -47 -317 -135 -152 -62
-183 -77 -183 -91 0 -8 -4 -12 -9 -8 -6 3 -8 14 -6 25 2 11 0 20 -4 20 -4 0
-8 7 -8 15 0 8 8 15 17 15 9 0 20 4 25 8 6 5 26 15 45 22 19 7 49 19 65 26 17
7 62 26 101 42 107 45 190 91 173 96 -8 2 -36 7 -64 11 -107 14 -319 95 -412
157 -44 30 -70 38 -37 12 18 -14 18 -15 -6 -9 -24 5 -24 5 3 -10 16 -9 38 -18
49 -20 11 -2 27 -10 36 -17 41 -33 52 -43 52 -49 0 -8 -47 -29 -65 -29 -7 0
-26 -5 -42 -12 -15 -6 -36 -12 -46 -13 -17 -2 -17 -1 -1 16 10 11 12 19 6 19
-6 0 -17 -9 -25 -20 -15 -21 -19 -19 -32 20 -1 3 -5 13 -9 23 -5 9 -5 24 -2
33 4 9 2 22 -3 28 -11 13 29 54 48 48 24 -8 9 22 -31 64 -29 30 -45 40 -50 31
-6 -9 -8 -9 -8 0 0 6 4 14 9 18 6 3 4 19 -5 40 -20 49 -18 100 11 194 24 82
71 164 107 190 16 11 17 15 7 23 -11 8 -11 9 1 5 8 -2 27 2 41 9 30 15 57 44
41 44 -6 0 -16 -8 -21 -17 -9 -16 -10 -16 -11 -2 0 23 29 32 48 17 13 -11 14
-11 7 1 -6 11 -4 13 9 8 10 -4 15 -3 11 3 -3 6 4 10 17 10 19 0 20 2 8 11 -12
9 -12 10 4 5 10 -4 25 -1 32 5 7 6 17 8 22 5 6 -3 15 1 22 10 7 8 18 13 24 11
7 -3 25 1 41 9 22 10 23 12 6 8 -15 -4 -21 -2 -17 4 3 6 1 12 -6 15 -7 2 -5 3
4 2 9 -2 19 2 22 9 3 7 9 5 16 -7 8 -12 16 -15 28 -8 9 4 24 6 32 3 12 -4 13
-2 3 9 -10 10 -9 17 5 32 16 18 16 19 -8 16 -19 -3 -25 -10 -24 -26 1 -25 -4
-27 -24 -15 -7 5 -10 16 -6 25 8 21 -10 22 -30 2 -8 -8 -25 -15 -38 -15 -13 0
-37 -9 -55 -19 -20 -13 -33 -16 -35 -9 -4 11 -51 15 -78 7 -8 -2 -15 2 -14 9
1 6 2 30 3 52 1 28 5 40 16 40 11 0 15 11 15 40 0 29 4 40 15 40 8 0 15 5 15
10 0 9 44 7 108 -6 20 -4 22 -1 22 36 0 38 2 40 30 40 23 0 30 4 30 20 0 13
-7 20 -18 20 -24 0 -45 43 -29 59 6 6 19 11 29 11 10 0 18 7 18 15 0 11 11 15
36 15 56 0 74 15 74 60 0 36 3 40 25 40 14 0 25 -5 25 -11 0 -8 5 -8 15 1 20
17 19 55 -2 75 -16 16 -14 17 29 14 33 -3 44 -1 41 8 -3 7 6 15 20 18 16 4 27
15 30 31 2 13 0 24 -4 24 -5 0 -6 7 -3 15 4 8 12 15 20 15 8 0 14 7 14 15 0
18 76 21 82 3 2 -6 12 -9 21 -5 13 5 17 19 17 60 0 76 27 98 68 54z m368 -124
c-8 -8 -56 6 -56 17 0 15 55 17 58 2 2 -8 1 -16 -2 -19z m-879 -245 c-3 -8 -6
-5 -6 6 -1 11 2 17 5 13 3 -3 4 -12 1 -19z m1280 -20 c-3 -8 -6 -5 -6 6 -1 11
2 17 5 13 3 -3 4 -12 1 -19z m-178 -114 c10 -9 -35 -3 -49 6 -11 8 -7 9 15 4
17 -4 32 -8 34 -10z m78 -20 c-3 -3 -12 -4 -19 -1 -8 3 -5 6 6 6 11 1 17 -2
13 -5z m338 -53 c8 -14 -10 -22 -30 -15 -13 5 -14 8 -3 15 17 11 26 11 33 0z
m15 -31 c0 -5 -5 -10 -11 -10 -5 0 -7 5 -4 10 3 6 8 10 11 10 2 0 4 -4 4 -10z
m-741 -764 c102 -53 65 -278 -61 -361 -135 -89 -245 26 -193 201 36 123 166
205 254 160z m-1084 -206 c3 -6 -1 -7 -9 -4 -18 7 -21 14 -7 14 6 0 13 -4 16
-10z m260 -151 c4 -6 14 -8 24 -4 10 4 13 3 6 -4 -5 -5 -28 -16 -50 -24 -22
-8 -85 -31 -140 -52 -132 -48 -135 -49 -135 -36 0 7 4 10 8 7 5 -3 9 1 9 8 0
8 -7 12 -16 9 -26 -7 60 39 89 48 14 4 52 19 85 33 64 27 110 33 120 15z
m1495 -58 c0 -31 -12 -45 -47 -55 -21 -7 -23 -4 -23 27 0 29 5 37 28 45 40 15
42 15 42 -17z m-958 -20 l16 -29 -56 -25 c-32 -14 -153 -64 -270 -111 -248
-100 -265 -108 -288 -138 -9 -13 -14 -16 -11 -7 3 9 0 22 -6 28 -8 8 -8 11 0
11 6 0 13 -6 15 -12 3 -7 7 -2 10 10 4 12 1 25 -4 29 -7 3 -8 1 -4 -5 11 -17
-9 -15 -24 3 -10 12 -10 15 3 15 8 0 28 7 44 15 15 8 71 32 123 54 165 69 303
129 365 160 33 17 62 30 65 30 3 1 12 -12 22 -28z m507 -249 c1 -159 0 -171
-22 -203 -23 -35 -87 -71 -183 -104 -100 -35 -134 1 -142 151 -2 51 -1 113 2
138 7 43 11 48 58 72 49 25 266 113 280 114 4 0 7 -76 7 -168z m-1254 79 c3
-5 0 -13 -6 -17 -7 -4 -9 -3 -5 4 3 5 0 13 -6 15 -9 4 -10 6 -1 6 6 1 14 -3
18 -8z m165 -202 c0 -4 -7 -6 -15 -3 -8 4 -15 10 -15 15 0 4 7 6 15 3 8 -4 15
-10 15 -15z m305 -48 c3 -5 1 -12 -5 -16 -5 -3 -10 1 -10 9 0 18 6 21 15 7z
m-195 -63 c0 -6 -6 -5 -15 2 -8 7 -15 14 -15 16 0 2 7 1 15 -2 8 -4 15 -11 15
-16z"/>
<path d="M1600 3419 c0 -5 5 -7 10 -4 6 3 10 8 10 11 0 2 -4 4 -10 4 -5 0 -10
-5 -10 -11z"/>
<path d="M1831 3364 c0 -11 3 -14 6 -6 3 7 2 16 -1 19 -3 4 -6 -2 -5 -13z"/>
<path d="M2020 3284 c0 -8 5 -12 10 -9 6 3 10 10 10 16 0 5 -4 9 -10 9 -5 0
-10 -7 -10 -16z"/>
<path d="M1782 3073 c5 -26 38 -29 38 -4 0 15 -6 21 -21 21 -14 0 -19 -5 -17
-17z"/>
<path d="M1778 3033 c7 -3 16 -2 19 1 4 3 -2 6 -13 5 -11 0 -14 -3 -6 -6z"/>
<path d="M2520 2950 c19 -13 30 -13 30 0 0 6 -10 10 -22 10 -19 0 -20 -2 -8
-10z"/>
<path d="M1554 2881 c-90 -43 -115 -59 -222 -144 -67 -54 -81 -77 -47 -77 8 0
29 -9 47 -19 45 -26 287 -106 393 -130 48 -10 89 -21 91 -24 3 -2 -41 -21 -98
-42 -187 -68 -282 -107 -392 -161 -96 -48 -117 -54 -171 -54 -136 0 -325 74
-325 127 0 37 127 150 242 217 55 32 73 52 37 41 -13 -4 -60 -25 -104 -46
-201 -97 -281 -213 -241 -348 45 -153 138 -241 255 -241 l54 0 106 109 c107
110 155 147 247 194 92 47 328 144 399 166 70 20 70 21 122 98 60 91 121 156
198 213 52 39 68 60 44 60 -6 0 -19 -5 -30 -11 -16 -8 -36 -6 -87 10 -58 17
-210 56 -360 91 -62 15 -69 13 -158 -29z m206 -21 c-149 -18 -204 -40 -344
-134 -55 -36 -101 -64 -104 -62 -12 12 121 112 208 156 75 38 121 49 215 48
l90 -1 -65 -7z"/>
<path d="M1375 2890 c-3 -6 1 -7 9 -4 18 7 21 14 7 14 -6 0 -13 -4 -16 -10z"/>
<path d="M1040 2869 c0 -5 5 -7 10 -4 6 3 10 8 10 11 0 2 -4 4 -10 4 -5 0 -10
-5 -10 -11z"/>
<path d="M1239 2858 c-12 -23 -29 -23 -30 0 0 10 -5 6 -11 -12 -6 -16 -7 -31
-2 -35 14 -10 10 -61 -5 -70 -9 -6 -10 -10 -2 -16 14 -8 84 62 75 76 -8 13 4
61 14 55 4 -2 12 2 18 8 9 10 5 13 -18 13 -18 0 -33 -7 -39 -19z m6 -63 c-3
-28 -14 -47 -24 -40 -5 2 -7 15 -6 27 4 34 4 35 19 35 8 0 13 -9 11 -22z"/>
<path d="M1313 2863 c-7 -2 -13 -10 -13 -16 0 -8 4 -7 12 1 21 21 32 13 12
-10 l-19 -23 22 19 c30 25 20 43 -14 29z"/>
<path d="M2273 2858 c-18 -5 -33 -11 -33 -14 0 -6 48 0 56 8 3 4 12 4 19 2 7
-3 15 -1 18 3 7 12 -21 12 -60 1z"/>
<path d="M960 2810 c0 -5 5 -10 11 -10 5 0 7 5 4 10 -3 6 -8 10 -11 10 -2 0
-4 -4 -4 -10z"/>
<path d="M2435 2809 c-130 -17 -286 -116 -380 -242 -25 -33 -44 -61 -43 -63 2
-1 118 37 258 86 140 48 305 105 367 126 62 22 112 42 113 45 0 12 -128 49
-185 53 -33 2 -91 0 -130 -5z"/>
<path d="M2886 2766 c3 -8 13 -17 22 -21 13 -5 13 -2 -3 15 -21 24 -26 25 -19
6z"/>
<path d="M2695 2645 c-33 -13 -89 -34 -125 -47 l-65 -24 0 -240 c0 -131 -1
-244 -3 -250 -1 -6 -23 -19 -49 -29 -27 -10 -54 -22 -60 -28 -17 -12 -18 -257
-2 -257 29 0 49 22 49 55 0 29 4 35 35 46 29 11 35 18 35 42 0 30 -5 31 -53
12 -16 -7 -17 -3 -14 29 2 20 6 38 9 41 8 8 213 92 243 99 l26 7 -7 -71 c-3
-38 -4 -70 -1 -70 3 0 18 5 32 12 23 10 25 16 25 74 l0 62 43 15 c23 8 49 18
59 22 11 4 18 0 23 -14 l6 -21 22 21 c21 20 22 27 22 237 0 199 -2 219 -20
246 -40 59 -128 71 -230 31z m148 -56 c12 -7 25 -17 29 -23 14 -20 9 -300 -4
-319 -13 -17 -234 -107 -262 -107 -14 0 -16 24 -16 194 l0 194 108 36 c122 41
116 40 145 25z"/>
<path d="M2718 2493 l-68 -26 0 -113 c0 -86 3 -114 13 -114 7 0 44 13 82 29
l70 30 3 88 c3 98 -2 133 -21 132 -6 0 -42 -12 -79 -26z"/>
<path d="M2403 2538 c-20 -10 -23 -19 -23 -72 0 -96 12 -120 47 -98 6 4 13 45
16 95 6 92 4 96 -40 75z"/>
<path d="M2038 2388 c-7 -18 2 -39 13 -32 12 7 12 44 0 44 -5 0 -11 -6 -13
-12z"/>
<path d="M1581 2270 c-79 -33 -162 -65 -185 -71 -38 -10 -126 -81 -126 -101 0
-4 36 -8 80 -8 102 0 139 18 240 114 41 40 91 84 110 99 19 15 33 27 30 26 -3
0 -70 -27 -149 -59z"/>
<path d="M1468 1985 c-2 -3 -58 -13 -124 -23 -92 -14 -129 -24 -157 -44 -36
-24 -37 -26 -15 -32 13 -4 68 -9 124 -13 119 -7 138 0 166 64 17 40 20 62 6
48z"/>
<path d="M736 1965 c4 -8 11 -15 16 -15 6 0 5 6 -2 15 -7 8 -14 15 -16 15 -2
0 -1 -7 2 -15z"/>
<path d="M2723 1748 c-18 -9 -23 -20 -23 -49 0 -38 0 -38 30 -27 35 12 35 12
45 56 6 27 4 32 -12 31 -10 0 -28 -5 -40 -11z"/>
<path d="M1790 2082 c-95 -48 -102 -222 -9 -222 32 0 83 40 104 81 24 45 19
106 -10 134 -29 30 -39 30 -85 7z"/>
<path d="M1965 1514 c-44 -18 -88 -35 -97 -38 -15 -5 -18 -18 -17 -88 2 -144
13 -155 113 -117 91 33 96 42 96 157 0 53 -4 102 -8 108 -5 7 -34 -1 -87 -22z"/>
</g>
</svg>
